<svg width="229" height="229" viewBox="0 0 229 229" fill="none" xmlns="http://www.w3.org/2000/svg">
<path d="M148.011 123.739C155.149 123.739 161.431 119.836 164.668 113.935L198.743 52.1607C202.265 45.8785 197.696 38.0735 190.463 38.0735H49.5906L40.6434 19.0367H9.51831V38.0735H28.555L62.8212 110.318L49.9714 133.543C43.023 146.297 52.1606 161.812 66.6285 161.812H180.849V142.776H66.6285L77.0987 123.739H148.011ZM58.6331 57.1102H174.281L148.011 104.702H81.1916L58.6331 57.1102ZM66.6285 171.331C56.1583 171.331 47.687 179.897 47.687 190.367C47.687 200.838 56.1583 209.404 66.6285 209.404C77.0987 209.404 85.6653 200.838 85.6653 190.367C85.6653 179.897 77.0987 171.331 66.6285 171.331ZM161.812 171.331C151.342 171.331 142.871 179.897 142.871 190.367C142.871 200.838 151.342 209.404 161.812 209.404C172.282 209.404 180.849 200.838 180.849 190.367C180.849 179.897 172.282 171.331 161.812 171.331Z" fill="#FFFFF0"/>
</svg>
